<svg width="1920" height="1080" viewBox="0 0 1920 1080" xmlns="http://www.w3.org/2000/svg" role="img" aria-label="City service map background">
  <defs>
    <linearGradient id="bg" x1="0" y1="0" x2="1" y2="1">
      <stop offset="0%" stop-color="#d9e6f7"/>
      <stop offset="45%" stop-color="#e9f0fb"/>
      <stop offset="100%" stop-color="#dce9f9"/>
    </linearGradient>
    <pattern id="grid" width="64" height="64" patternUnits="userSpaceOnUse">
      <path d="M64 0H0V64" fill="none" stroke="#c4d5ec" stroke-width="1" opacity="0.5"/>
    </pattern>
    <filter id="soft" x="-20%" y="-20%" width="140%" height="140%">
      <feGaussianBlur stdDeviation="2"/>
    </filter>
  </defs>

  <rect width="1920" height="1080" fill="url(#bg)"/>
  <rect width="1920" height="1080" fill="url(#grid)"/>

  <g stroke="#f7fbff" stroke-width="24" stroke-linecap="round" opacity="0.9">
    <path d="M80 140C290 220 430 280 640 260C910 235 1030 100 1270 130C1510 160 1710 290 1860 250"/>
    <path d="M60 430C260 360 500 400 670 530C860 675 1080 740 1300 640C1450 570 1640 470 1880 500"/>
    <path d="M100 920C330 850 530 870 710 760C930 625 1090 460 1340 470C1560 480 1730 620 1880 760"/>
    <path d="M300 80C260 270 320 440 300 650C285 810 220 920 180 1030"/>
    <path d="M790 40C780 200 830 360 900 530C980 720 1030 860 980 1040"/>
    <path d="M1410 20C1480 170 1530 330 1460 500C1390 670 1280 820 1260 1060"/>
  </g>

  <g stroke="#93b2d8" stroke-width="8" opacity="0.8" filter="url(#soft)">
    <path d="M90 260C380 260 520 200 780 260C1000 310 1230 450 1450 430C1620 420 1760 360 1880 320" fill="none"/>
    <path d="M0 620C180 660 420 740 600 700C830 650 940 530 1160 560C1370 590 1650 760 1920 760" fill="none"/>
    <path d="M430 0C500 120 560 210 560 360C560 540 490 700 520 910C535 995 570 1040 620 1080" fill="none"/>
    <path d="M1090 0C1180 170 1220 340 1190 540C1160 720 1100 880 1110 1080" fill="none"/>
  </g>

  <g fill="#b8cde8" opacity="0.45">
    <rect x="110" y="120" width="140" height="90" rx="10"/>
    <rect x="410" y="150" width="180" height="110" rx="12"/>
    <rect x="760" y="130" width="130" height="100" rx="10"/>
    <rect x="1210" y="160" width="190" height="120" rx="14"/>
    <rect x="1510" y="140" width="150" height="100" rx="12"/>
    <rect x="180" y="400" width="170" height="110" rx="12"/>
    <rect x="560" y="420" width="220" height="140" rx="14"/>
    <rect x="930" y="410" width="140" height="100" rx="10"/>
    <rect x="1260" y="430" width="180" height="120" rx="14"/>
    <rect x="1580" y="460" width="210" height="130" rx="14"/>
    <rect x="140" y="760" width="210" height="130" rx="14"/>
    <rect x="470" y="760" width="160" height="110" rx="10"/>
    <rect x="860" y="760" width="220" height="140" rx="16"/>
    <rect x="1210" y="760" width="170" height="120" rx="12"/>
    <rect x="1530" y="790" width="190" height="120" rx="14"/>
  </g>
</svg>
